<svg width="20" height="20" viewBox="0 0 20 20" fill="none" xmlns="http://www.w3.org/2000/svg">
<g clip-path="url(#clip0_43_306)">
<path d="M18.4004 8.58699V6.69717C18.4004 5.95077 17.7953 5.3457 17.049 5.3457H3.7517C3.00542 5.34567 2.40039 5.95073 2.40039 6.69714V8.59958C3.08655 8.69814 3.61458 9.2867 3.61458 10.0002C3.61458 10.7136 3.08655 11.3023 2.40039 11.4006V13.3033C2.40039 14.0494 3.00542 14.6545 3.7517 14.6545H17.049C17.7953 14.6545 18.4004 14.0494 18.4004 13.3033V11.4132C17.6495 11.378 17.0512 10.7598 17.0512 10.0002C17.0512 9.24061 17.6496 8.62239 18.4004 8.58699ZM6.19773 13.8018H5.73283V12.5893H6.19773V13.8018ZM6.19773 11.6715H5.73283V10.459H6.19773V11.6715ZM6.19773 9.5412H5.73283V8.32839H6.19773V9.5412ZM6.19773 7.41092H5.73283V6.19836H6.19773V7.41092Z" fill="#5F5F5F"/>
</g>
<defs>
<clipPath id="clip0_43_306">
<rect width="16" height="16" fill="white" transform="translate(2.40039 2)"/>
</clipPath>
</defs>
</svg>
