<svg width="30" height="30" viewBox="0 0 30 30" fill="none" xmlns="http://www.w3.org/2000/svg">
<path d="M21.6244 4.91992C21.249 4.91992 20.8893 5.07236 20.6128 5.34836L19.125 6.83617C18.9335 7.02721 18.84 7.24859 18.84 7.51211V7.79992H9.24C5.81018 7.79992 3 10.6101 3 14.0399V19.3199C3 20.1097 3.65018 20.7599 4.44 20.7599H4.92V21.7199C4.92 22.5138 5.56608 23.1599 6.36 23.1599H6.94313C7.25874 24.2645 8.2774 25.0799 9.48 25.0799C10.8514 25.0799 11.9855 24.0207 12.1078 22.6799H19.3322C19.4545 24.0207 20.5886 25.0799 21.96 25.0799C23.1626 25.0799 24.1813 24.2645 24.4969 23.1599H25.56C26.3539 23.1599 27 22.5138 27 21.7199V19.4034C27 18.343 26.2408 17.4467 25.1944 17.2724L21.5231 16.4896L19.8047 14.0849C19.3547 13.4544 18.6262 13.0799 17.8519 13.0799H11.4216C10.8019 13.0799 10.2188 13.3794 9.85875 13.8834L7.99781 16.4887L6.7425 16.7502C5.61834 16.9845 4.92 17.8522 4.92 19.0162V19.7999H4.44C4.17382 19.7999 3.96 19.5861 3.96 19.3199V14.0399C3.96 11.1337 6.33382 8.75992 9.24 8.75992H18.84V9.04773C18.84 9.31125 18.9335 9.53215 19.125 9.72367L20.6119 11.2115C20.8888 11.488 21.249 11.6399 21.6244 11.6399H23.64C24.1963 11.6399 24.6 11.2362 24.6 10.6799H27V9.71992H24.6V6.83992H27V5.87992H24.6C24.6 5.3236 24.1963 4.91992 23.64 4.91992H21.6244ZM11.4216 14.0399H14.04V16.4399H9.21281L10.6397 14.4421C10.8201 14.1896 11.111 14.0399 11.4216 14.0399ZM15 14.0399H17.8519C18.3169 14.0399 18.7537 14.2643 19.0238 14.6427L20.3072 16.4399H15V14.0399ZM9.48 20.7599C10.4135 20.7599 11.16 21.5064 11.16 22.4399C11.16 23.3734 10.4135 24.1199 9.48 24.1199C8.54648 24.1199 7.8 23.3734 7.8 22.4399C7.8 21.5064 8.54648 20.7599 9.48 20.7599ZM21.96 20.7599C22.8935 20.7599 23.64 21.5064 23.64 22.4399C23.64 23.3734 22.8935 24.1199 21.96 24.1199C21.0265 24.1199 20.28 23.3734 20.28 22.4399C20.28 21.5064 21.0265 20.7599 21.96 20.7599Z" fill="#5F5F5F"/>
</svg>
