<svg width="30" height="30" viewBox="0 0 30 30" fill="none" xmlns="http://www.w3.org/2000/svg">
<g clip-path="url(#clip0_43_383)">
<path d="M24.9716 18.1198C24.4366 10.9776 21.6638 7.64893 18.7925 7.64893C16.6316 7.64893 15.9361 9.19088 15 9.19088C14.0639 9.19088 13.3663 7.64893 11.2075 7.64893C8.33618 7.64893 5.56333 10.9777 5.02833 18.1198C4.82422 20.3806 5.74047 21.8202 7.21723 22.2549C8.71028 22.6946 10.5347 21.6087 12.0387 19.424C12.7086 18.4504 13.846 17.1404 15 17.1404C16.154 17.1404 17.2913 18.4504 17.9613 19.424C19.4654 21.6087 21.2897 22.6946 22.7827 22.2549C24.2598 21.8202 25.1757 20.3806 24.9716 18.1198ZM12.7615 14.8602H11.3116V16.31H9.72145V14.8602H8.27165V13.27H9.72145V11.8202H11.3116V13.27H12.7615V14.8602ZM17.5747 15.0692C17.1113 15.0692 16.7361 14.6943 16.7361 14.2309C16.7361 13.7678 17.1113 13.3926 17.5747 13.3926C18.0378 13.3926 18.4134 13.7678 18.4134 14.2309C18.4134 14.6943 18.0378 15.0692 17.5747 15.0692ZM19.6004 17.0955C19.1376 17.0955 18.7624 16.7203 18.7624 16.2569C18.7624 15.7938 19.1376 15.4185 19.6004 15.4185C20.0638 15.4185 20.439 15.7938 20.439 16.2569C20.439 16.7203 20.0638 17.0955 19.6004 17.0955ZM19.6004 13.0432C19.1376 13.0432 18.7624 12.6677 18.7624 12.2046C18.7624 11.7412 19.1376 11.366 19.6004 11.366C20.0638 11.366 20.439 11.7412 20.439 12.2046C20.439 12.6677 20.0638 13.0432 19.6004 13.0432ZM21.6266 15.0692C21.1636 15.0692 20.788 14.6943 20.788 14.2309C20.788 13.7678 21.1636 13.3926 21.6266 13.3926C22.0901 13.3926 22.4652 13.7678 22.4652 14.2309C22.4652 14.6943 22.0901 15.0692 21.6266 15.0692Z" fill="#5F5F5F"/>
</g>
<defs>
<clipPath id="clip0_43_383">
<rect width="20" height="20" fill="white" transform="translate(5 5)"/>
</clipPath>
</defs>
</svg>
