<svg width="35" height="34" viewBox="0 0 35 34" fill="none" xmlns="http://www.w3.org/2000/svg">
<rect x="0.5" width="34" height="34" rx="10" fill="#005CB9"/>
<path fill-rule="evenodd" clip-rule="evenodd" d="M16.674 10.3101C16.1742 9.46996 15.0802 9.15719 14.2178 9.667L12.9347 10.4013C11.9883 10.9423 11.6674 12.1554 12.208 13.0911L12.2084 13.0918C12.4873 13.5729 12.4435 13.8803 12.3565 14.0314C12.2694 14.1825 12.0255 14.3741 11.4712 14.3741C10.3801 14.3741 9.5 15.2655 9.5 16.3452V17.6544C9.5 18.7342 10.3801 19.6256 11.4712 19.6256C12.0255 19.6256 12.2694 19.8171 12.3565 19.9683C12.4435 20.1193 12.4873 20.4267 12.2084 20.9079L12.208 20.9086C11.6674 21.8443 11.9886 23.0576 12.935 23.5986L14.2179 24.3327C15.0803 24.8424 16.1742 24.5297 16.674 23.6896L16.7592 23.5425C17.0381 23.0613 17.3274 22.945 17.5028 22.945C17.6773 22.945 17.9644 23.0603 18.2396 23.5404L18.2408 23.5425L18.3226 23.6838L18.326 23.6896C18.8258 24.5297 19.9197 24.8424 20.7821 24.3327L22.0653 23.5984C23.0124 23.057 23.3313 21.8523 22.7933 20.9109L22.7916 20.9079C22.5127 20.4267 22.5565 20.1193 22.6435 19.9683C22.7306 19.8171 22.9745 19.6256 23.5288 19.6256C24.6199 19.6256 25.5 18.7342 25.5 17.6544V16.3452C25.5 15.2542 24.6086 14.3741 23.5288 14.3741C22.9745 14.3741 22.7306 14.1825 22.6435 14.0314C22.5565 13.8803 22.5127 13.5729 22.7916 13.0918L22.792 13.0911C23.3327 12.1553 23.0116 10.942 22.065 10.4011L20.7822 9.667C19.9198 9.15719 18.8258 9.46993 18.326 10.3101L18.2408 10.4572C17.9619 10.9384 17.6726 11.0547 17.4972 11.0547C17.3227 11.0547 17.0356 10.9394 16.7604 10.4592L16.7592 10.4572L16.6774 10.3158L16.674 10.3101ZM19.7278 16.9998C19.7278 18.2323 18.7287 19.2313 17.4963 19.2313C16.2638 19.2313 15.2648 18.2323 15.2648 16.9998C15.2648 15.7674 16.2638 14.7683 17.4963 14.7683C18.7287 14.7683 19.7278 15.7674 19.7278 16.9998Z" fill="white"/>
</svg>
