<svg width="20" height="16" viewBox="0 0 20 16" fill="none" xmlns="http://www.w3.org/2000/svg">
<path d="M10.8214 8.26365L9.78186 8.15107C9.63964 8.13568 9.51936 8.04216 9.46475 7.90998C9.46409 7.90841 9.46343 7.90681 9.4628 7.90525C9.408 7.7731 9.42686 7.62197 9.51655 7.51052L10.172 6.69588C10.2956 6.54228 10.2836 6.32025 10.1442 6.18084L8.91722 4.95385C8.7778 4.81443 8.55581 4.80244 8.40218 4.92603L7.58718 5.58178C7.47601 5.67123 7.3253 5.69021 7.19335 5.63592C7.19191 5.63533 7.19046 5.63474 7.18901 5.63416C7.05636 5.57971 6.96249 5.45924 6.94706 5.31666L6.83444 4.27666C6.81323 4.08064 6.64777 3.93213 6.45062 3.93213H4.71538C4.51824 3.93213 4.35277 4.08064 4.33156 4.27666L4.21894 5.31666C4.20351 5.4592 4.1096 5.57971 3.97695 5.63416C3.9755 5.63474 3.97406 5.63533 3.97265 5.63592C3.8407 5.69025 3.69 5.67123 3.57882 5.58178L2.76375 4.92603C2.61015 4.80244 2.38812 4.81443 2.24875 4.95385L1.02176 6.18084C0.882343 6.32025 0.87035 6.54228 0.993944 6.69588L1.64941 7.51052C1.7391 7.62201 1.75797 7.7731 1.70316 7.90525C1.7025 7.90681 1.70187 7.90841 1.70121 7.90998C1.64656 8.04216 1.52633 8.13568 1.3841 8.15107L0.344531 8.26365C0.148515 8.28486 0 8.45033 0 8.64748V10.3827C0 10.5799 0.148515 10.7453 0.344531 10.7665L1.38406 10.8791C1.52629 10.8945 1.64656 10.988 1.70117 11.1202C1.70183 11.1217 1.70246 11.1233 1.70312 11.1249C1.75793 11.257 1.73906 11.4082 1.64937 11.5197L0.993905 12.3343C0.870311 12.4879 0.882304 12.7099 1.02172 12.8493L2.24871 14.0763C2.38812 14.2157 2.61015 14.2277 2.76375 14.1041L3.57875 13.4484C3.68992 13.3589 3.84062 13.3399 3.97257 13.3943C3.97402 13.3949 3.97546 13.3954 3.97691 13.396C4.10957 13.4505 4.20343 13.5709 4.21886 13.7135L4.33148 14.7535C4.35269 14.9495 4.51816 15.0981 4.71531 15.0981H6.45054C6.64769 15.0981 6.81316 14.9495 6.83437 14.7535L6.94698 13.7135C6.96241 13.571 7.05628 13.4505 7.18894 13.396C7.19038 13.3954 7.19183 13.3949 7.19323 13.3943C7.32519 13.3399 7.47589 13.3589 7.5871 13.4484L8.4021 14.1041C8.55569 14.2277 8.77772 14.2157 8.91714 14.0763L10.1441 12.8493C10.2835 12.7099 10.2955 12.4879 10.1719 12.3343L9.51647 11.5197C9.42678 11.4082 9.40792 11.2571 9.46272 11.1249C9.46335 11.1233 9.46401 11.1218 9.46468 11.1202C9.51932 10.988 9.63956 10.8945 9.78179 10.8791L10.8213 10.7665C11.0173 10.7453 11.1658 10.5798 11.1658 10.3827V8.64748C11.1659 8.45033 11.0174 8.28486 10.8214 8.26365ZM5.58296 11.2557C4.62167 11.2557 3.84238 10.4764 3.84238 9.51509C3.84238 8.5538 4.62167 7.77451 5.58296 7.77451C6.54425 7.77451 7.32355 8.5538 7.32355 9.51509C7.32355 10.4764 6.54425 11.2557 5.58296 11.2557Z" fill="#5F5F5F"/>
<path d="M19.8228 6.5239L19.1092 5.96035C18.9955 5.87058 18.9324 5.73297 18.9323 5.58809C18.9323 5.58656 18.9323 5.58504 18.9323 5.58348C18.9321 5.43828 18.9952 5.30031 19.1092 5.21035L19.8228 4.64676C19.9862 4.5177 20.0441 4.29578 19.9644 4.1034L19.6509 3.3466C19.5712 3.15418 19.3734 3.03817 19.1666 3.06246L18.2635 3.16856C18.1193 3.18551 17.977 3.13262 17.8746 3.02977C17.8735 3.02867 17.8724 3.02758 17.8713 3.02653C17.7689 2.92403 17.7163 2.78207 17.7332 2.63821L17.8393 1.73512C17.8636 1.52832 17.7475 1.33051 17.5551 1.25083L16.7983 0.937388C16.6059 0.8577 16.384 0.915513 16.255 1.07891L15.6914 1.7925C15.6016 1.90621 15.464 1.9693 15.3191 1.96938C15.3175 1.96938 15.316 1.96938 15.3145 1.96938C15.1693 1.96961 15.0314 1.90645 14.9414 1.7925L14.3778 1.07887C14.2487 0.915435 14.0268 0.857622 13.8344 0.93731L13.0776 1.25079C12.8852 1.33047 12.7691 1.52829 12.7934 1.73512L12.8995 2.63825C12.9165 2.78242 12.8636 2.92465 12.7608 3.02715C12.7597 3.02824 12.7586 3.02934 12.7575 3.03043C12.655 3.13285 12.5131 3.18551 12.3691 3.1686L11.4661 3.0625C11.2592 3.03821 11.0615 3.15426 10.9818 3.34664L10.6683 4.10344C10.5886 4.29582 10.6464 4.51777 10.8099 4.64684L11.5234 5.21039C11.6372 5.30019 11.7002 5.43777 11.7003 5.58266C11.7003 5.58422 11.7003 5.58574 11.7003 5.58726C11.7006 5.73246 11.6374 5.87043 11.5234 5.96039L10.8098 6.52398C10.6464 6.65305 10.5886 6.87496 10.6683 7.06734L10.9817 7.82414C11.0614 8.01652 11.2592 8.13257 11.466 8.10828L12.3692 8.00218C12.5134 7.98523 12.6556 8.03812 12.7581 8.14097C12.7592 8.14207 12.7602 8.14316 12.7613 8.14421C12.8638 8.24671 12.9164 8.38863 12.8995 8.53253L12.7934 9.43566C12.7691 9.64249 12.8852 9.84027 13.0775 9.91996L13.8343 10.2334C14.0267 10.3131 14.2486 10.2553 14.3777 10.0919L14.9413 9.37828C15.0311 9.26456 15.1687 9.20148 15.3136 9.2014C15.3151 9.2014 15.3166 9.2014 15.3182 9.2014C15.4633 9.20113 15.6013 9.26433 15.6913 9.37828L16.2549 10.0919C16.384 10.2553 16.6059 10.3132 16.7983 10.2335L17.5551 9.91999C17.7475 9.84031 17.8635 9.64249 17.8392 9.4357L17.7331 8.53257C17.7162 8.38839 17.7691 8.24613 17.8719 8.14367C17.873 8.14257 17.8741 8.14148 17.8752 8.14043C17.9777 8.03804 18.1196 7.98535 18.2635 8.00226L19.1666 8.10836C19.3735 8.13265 19.5713 8.0166 19.6509 7.82422L19.9644 7.06742C20.044 6.87492 19.9862 6.65297 19.8228 6.5239ZM15.779 6.93363C15.0531 7.23433 14.2208 6.88961 13.9201 6.16363C13.6194 5.43766 13.9642 4.60543 14.6901 4.30473C15.4161 4.00402 16.2483 4.34875 16.549 5.07473C16.8497 5.80066 16.505 6.63297 15.779 6.93363Z" fill="#5F5F5F"/>
</svg>
