<svg width="30" height="30" viewBox="0 0 30 30" fill="none" xmlns="http://www.w3.org/2000/svg">
<path fill-rule="evenodd" clip-rule="evenodd" d="M10 16.25C7.92893 16.25 6.25 14.5711 6.25 12.5C6.25 10.4289 7.92893 8.75 10 8.75C12.0711 8.75 13.75 10.4289 13.75 12.5C13.75 14.5711 12.0711 16.25 10 16.25ZM20 16.25C17.9289 16.25 16.25 14.5711 16.25 12.5C16.25 10.4289 17.9289 8.75 20 8.75C22.0711 8.75 23.75 10.4289 23.75 12.5C23.75 14.5711 22.0711 16.25 20 16.25ZM10 18.75C12.9867 18.75 15.6676 20.0594 17.5 22.1354C17.5 22.7299 17.5 23.2681 17.5 23.75H2.5C2.5 23.2681 2.5 22.7299 2.5 22.1354C4.33236 20.0594 7.01327 18.75 10 18.75ZM20 23.75V21.19L19.3743 20.4811C18.8939 19.9368 18.3707 19.4386 17.8114 18.9902C18.5158 18.833 19.2482 18.75 20 18.75C22.9867 18.75 25.6676 20.0594 27.5 22.1354V23.75H20Z" fill="#5F5F5F"/>
</svg>
