<svg width="30" height="30" viewBox="0 0 30 30" fill="none" xmlns="http://www.w3.org/2000/svg">
<path d="M21.6667 6.66667H18.3333V5.83333C18.3333 5.37333 17.9608 5 17.5 5H12.5C12.0392 5 11.6667 5.37333 11.6667 5.83333V6.66667H8.33333C7.87252 6.66667 7.5 7.04 7.5 7.5V24.1667C7.5 24.6267 7.87252 25 8.33333 25H21.6667C22.1275 25 22.5 24.6267 22.5 24.1667V7.5C22.5 7.04 22.1275 6.66667 21.6667 6.66667ZM13.3333 7.5V6.66667H16.6667V7.5V8.33333H13.3333V7.5ZM17.5 20.8333H12.5C12.0392 20.8333 11.6667 20.46 11.6667 20C11.6667 19.54 12.0392 19.1667 12.5 19.1667H17.5C17.9608 19.1667 18.3333 19.54 18.3333 20C18.3333 20.46 17.9608 20.8333 17.5 20.8333ZM17.5 17.5H12.5C12.0392 17.5 11.6667 17.1267 11.6667 16.6667C11.6667 16.2067 12.0392 15.8333 12.5 15.8333H17.5C17.9608 15.8333 18.3333 16.2067 18.3333 16.6667C18.3333 17.1267 17.9608 17.5 17.5 17.5ZM17.5 14.1667H12.5C12.0392 14.1667 11.6667 13.7933 11.6667 13.3333C11.6667 12.8733 12.0392 12.5 12.5 12.5H17.5C17.9608 12.5 18.3333 12.8733 18.3333 13.3333C18.3333 13.7933 17.9608 14.1667 17.5 14.1667Z" fill="#5F5F5F"/>
</svg>
