<svg width="35" height="34" viewBox="0 0 35 34" fill="none" xmlns="http://www.w3.org/2000/svg">
<rect x="0.5" width="34" height="34" rx="10" fill="white"/>
<path fill-rule="evenodd" clip-rule="evenodd" d="M14.167 17.8335C12.7863 17.8335 11.667 16.7142 11.667 15.3335C11.667 13.9528 12.7863 12.8335 14.167 12.8335C15.5477 12.8335 16.667 13.9528 16.667 15.3335C16.667 16.7142 15.5477 17.8335 14.167 17.8335ZM20.8337 17.8335C19.4529 17.8335 18.3337 16.7142 18.3337 15.3335C18.3337 13.9528 19.4529 12.8335 20.8337 12.8335C22.2144 12.8335 23.3337 13.9528 23.3337 15.3335C23.3337 16.7142 22.2144 17.8335 20.8337 17.8335ZM14.167 19.5002C16.1581 19.5002 17.9454 20.3731 19.167 21.7571C19.167 22.1534 19.167 22.5122 19.167 22.8335H9.16699C9.16699 22.5122 9.16699 22.1534 9.16699 21.7571C10.3886 20.3731 12.1758 19.5002 14.167 19.5002ZM20.8337 22.8335V21.1268L20.4166 20.6542C20.0963 20.2914 19.7475 19.9592 19.3746 19.6603C19.8442 19.5555 20.3325 19.5002 20.8337 19.5002C22.8248 19.5002 24.6121 20.3731 25.8337 21.7571V22.8335H20.8337Z" fill="#555252"/>
</svg>
